<svg width="32" height="32" viewBox="0 0 32 32" fill="none" xmlns="http://www.w3.org/2000/svg">
<rect width="32" height="32" fill="white"/>
<path d="M8.33438 11.2392C9.09278 10.457 10.096 10 11.2816 10C13.5856 10 15.112 11.6491 15.4048 14.1229C15.5008 14.9286 15.5008 16.0594 15.496 17.3693V22.6937H12.328V19.0609C12.328 19.0609 12.3232 15.9511 12.304 15.3668C12.2176 12.8365 10.6912 11.2439 8.33438 11.2392C7.61918 11.9837 7.23998 12.8837 7.18238 14.2642C7.17278 14.4574 7.17758 15.1406 7.17758 16.0359C7.17758 16.5024 7.18238 17.0254 7.18238 17.5719V22.6984H4.01438V17.1055C4.01438 16.9123 4.00958 16.7191 4.00958 16.5259C4.00478 16.1348 3.99518 15.7437 4.01438 15.3527C4.04798 14.7024 4.16318 14.0616 4.47518 13.4679C5.18078 12.1109 6.63038 11.2345 8.17118 11.2345C8.22398 11.2345 8.27678 11.2392 8.33438 11.2392V11.2392Z" fill="#820AD1"/>
<path d="M27.9856 17.6473C28.0048 17.2563 28 16.8652 27.9904 16.4741C27.9856 16.2809 27.9856 16.0877 27.9856 15.8945V10.3016H24.8176V15.4281C24.8176 15.9746 24.8176 16.4976 24.8224 16.9641C24.8272 17.8641 24.8272 18.5473 24.8176 18.7358C24.76 20.1163 24.3808 21.0163 23.6704 21.7561C21.3136 21.7561 19.7824 20.1635 19.7008 17.6332C19.6816 17.0536 19.672 15.6071 19.672 13.9391V10.2968L16.504 10.3016V15.626C16.504 16.9358 16.504 18.0714 16.5952 18.8724C16.888 21.3461 18.4144 22.9953 20.7184 22.9953C21.8992 22.9953 22.9072 22.5382 23.6656 21.7561C23.7184 21.7561 23.7712 21.7608 23.8288 21.7608C25.3744 21.7608 26.8192 20.8844 27.5248 19.5274C27.8368 18.9337 27.952 18.2976 27.9856 17.6473V17.6473Z" fill="#820AD1"/>
</svg>
