<svg width="123" height="77" viewBox="0 0 123 77" fill="none" xmlns="http://www.w3.org/2000/svg">
<g clip-path="url(#clip0_46_11)">
<path d="M78.1288 8.12966H44.8713V67.8876H78.1288V8.12966Z" fill="#FF5F00"/>
<path d="M46.9828 38.0087C46.9828 25.867 52.6841 15.0979 61.4472 8.12968C55.0069 3.06186 46.8773 4.57764e-05 38.0086 4.57764e-05C16.9983 4.57764e-05 0 16.9983 0 38.0087C0 59.019 16.9983 76.0173 38.0086 76.0173C46.8773 76.0173 55.0069 72.9555 61.4472 67.8877C52.6841 61.025 46.9828 50.1503 46.9828 38.0087Z" fill="#EB001B"/>
<path d="M123 38.0087C123 59.019 106.002 76.0173 84.9915 76.0173C76.1228 76.0173 67.9932 72.9555 61.5529 67.8877C70.4215 60.9194 76.0172 50.1503 76.0172 38.0087C76.0172 25.867 70.3159 15.0979 61.5529 8.12968C67.9932 3.06186 76.1228 4.57764e-05 84.9915 4.57764e-05C106.002 4.57764e-05 123 17.1039 123 38.0087Z" fill="#F79E1B"/>
</g>
<defs>
<clipPath id="clip0_46_11">
<rect width="123" height="76.0172" fill="white"/>
</clipPath>
</defs>
</svg>
