<svg width="73" height="40" viewBox="0 0 73 40" fill="none" xmlns="http://www.w3.org/2000/svg">
<g clip-path="url(#clip0_58_300)">
<path d="M33.9505 12.7435L33.9506 12.7438C34.2363 15.1864 34.2372 18.6314 34.2227 22.6731V22.6749V38.5576H25.654L25.654 27.8797L25.654 27.8789L25.154 27.8797C25.654 27.8789 25.654 27.8789 25.654 27.8788V27.8785L25.654 27.8772L25.654 27.8719L25.6539 27.8514L25.6538 27.7709L25.6532 27.464C25.6527 27.1988 25.6519 26.8179 25.6508 26.3552C25.6485 25.4299 25.6449 24.1773 25.6395 22.8685C25.6286 20.2559 25.6105 17.4049 25.5812 16.4971L25.5812 16.4965C25.4476 12.5102 24.1979 9.21313 22.0219 6.90594C20.0812 4.84831 17.4362 3.61306 14.2837 3.36106C16.3643 1.53996 18.971 0.5 21.9934 0.5C25.3422 0.5 28.1026 1.71689 30.1378 3.835C32.1793 5.95978 33.518 9.02118 33.9505 12.7435ZM1.88057 10.8978C3.83452 7.0697 7.75789 4.536 11.9938 4.31431C10.2128 6.54606 9.27037 9.25322 9.11261 13.0983C9.09098 13.5453 9.09292 14.7958 9.09555 16.5006C9.09653 17.1343 9.09761 17.8307 9.09761 18.5719C9.09761 19.2625 9.10096 19.9931 9.10443 20.7511L9.10486 20.845C9.10849 21.637 9.11211 22.4587 9.11211 23.2983V38.5721H0.543421V21.863C0.543421 21.5627 0.539766 21.263 0.536153 20.9668L0.536135 20.9653C0.532504 20.6676 0.528923 20.3734 0.528923 20.0797H0.528959L0.528887 20.0737C0.526796 19.9002 0.52442 19.7272 0.522052 19.5548C0.507876 18.5228 0.493947 17.5089 0.542812 16.4944C0.642376 14.5327 0.982118 12.6395 1.87959 10.8998L1.88057 10.8978Z" fill="#820AD1" stroke="#820AD1"/>
<path d="M71.9612 19.9323C71.9901 21.1325 72.0042 22.3207 71.9472 23.5049L71.9471 23.5062C71.8475 25.4671 71.5079 27.3458 70.6104 29.0857L70.6094 29.0877C68.6572 32.9124 64.7525 35.4446 60.5102 35.6706C62.2787 33.4497 63.2197 30.7437 63.3773 26.9021C63.4071 26.3014 63.4068 24.1817 63.3923 21.4254L63.3923 21.423C63.3779 19.9907 63.3779 18.3841 63.3779 16.7017V1.42787H71.9465V18.137V18.1407C71.9465 18.7329 71.9465 19.3321 71.9612 19.9323ZM71.9612 19.9323L72.461 19.9203L71.9612 19.9325C71.9612 19.9324 71.9612 19.9324 71.9612 19.9323ZM46.836 1.41413V12.1203C46.836 17.2501 46.8649 21.7093 46.9232 23.5026C47.0494 27.4895 48.2992 30.787 50.4774 33.0926C52.4165 35.145 55.0587 36.3763 58.2046 36.6255C56.1218 38.4458 53.5059 39.4855 50.4966 39.4855C47.1478 39.4855 44.3873 38.2686 42.3522 36.1505C40.3109 34.0259 38.9722 30.9649 38.5396 27.2431C38.2681 24.813 38.2673 21.3529 38.2673 17.3106V1.42712L46.836 1.41413Z" fill="#820AD1" stroke="#820AD1"/>
</g>
<defs>
<clipPath id="clip0_58_300">
<rect width="72.49" height="40" fill="white"/>
</clipPath>
</defs>
</svg>
